<svg xmlns="http://www.w3.org/2000/svg" width="33.428" height="35.999" viewBox="0 0 33.428 35.999"><defs><style>.a{fill:#fff;}</style></defs><path class="a" d="M12.857,2.571a2.477,2.477,0,0,0-1.818.753,2.478,2.478,0,0,0-.753,1.819v18L7.252,19.085A2.576,2.576,0,0,0,5.1,18a2.406,2.406,0,0,0-1.788.763,2.563,2.563,0,0,0-.221,3.355L10.807,32.4a2.425,2.425,0,0,0,2.049,1.025H27.28a1.268,1.268,0,0,0,.794-.271,1.2,1.2,0,0,0,.452-.693l1.848-7.393a16.017,16.017,0,0,0,.482-3.9v-4.36a2.018,2.018,0,0,0-.563-1.426,1.8,1.8,0,0,0-1.366-.6A1.922,1.922,0,0,0,27,16.715h-.643V15.49a2.282,2.282,0,0,0-.643-1.637,2.131,2.131,0,0,0-1.607-.673,2.264,2.264,0,0,0-2.25,2.25v1.286h-.643V14.908a2.679,2.679,0,0,0-.743-1.9,2.414,2.414,0,0,0-1.826-.8,2.573,2.573,0,0,0-2.572,2.572v1.929h-.643V5.263a2.679,2.679,0,0,0-.743-1.9A2.41,2.41,0,0,0,12.857,2.571Zm0-2.571A4.865,4.865,0,0,1,16.5,1.557,5.169,5.169,0,0,1,18,5.263v4.42q.442-.04.643-.04a4.933,4.933,0,0,1,3.475,1.386,4.82,4.82,0,0,1,1.989-.422,4.549,4.549,0,0,1,3.7,1.748,4.45,4.45,0,0,1,1.125-.141,4.264,4.264,0,0,1,3.194,1.356,4.512,4.512,0,0,1,1.306,3.244v4.359a18.081,18.081,0,0,1-.563,4.52l-1.848,7.393A3.848,3.848,0,0,1,27.28,36H12.857a5.044,5.044,0,0,1-2.3-.552,5.208,5.208,0,0,1-1.818-1.5L1.025,23.665a5.159,5.159,0,0,1,.472-6.72A4.879,4.879,0,0,1,5.1,15.429a5.028,5.028,0,0,1,2.612.7V5.143A4.955,4.955,0,0,1,9.222,1.507,4.954,4.954,0,0,1,12.857,0Zm2.571,28.286V20.572h-.643v7.714Zm5.143,0V20.572h-.643v7.714Zm5.143,0V20.572h-.643v7.714Z"/></svg>