<svg xmlns="http://www.w3.org/2000/svg" width="35.998" height="36" viewBox="0 0 35.998 36"><defs><style>.a{fill:#fff;}</style></defs><path class="a" d="M35.5,29.935,30.424,34.97A3.672,3.672,0,0,1,27.715,36c-4.277-.128-8.32-2.229-11.639-4.386C10.627,27.65,5.627,22.735,2.49,16.8,1.286,14.3-.126,11.126.009,8.346A3.7,3.7,0,0,1,1.039,5.6L6.115.527A1.679,1.679,0,0,1,8.863.985l4.083,7.743a2.249,2.249,0,0,1-.458,2.556l-1.87,1.869a.922.922,0,0,0-.191.534c.717,2.776,2.889,5.334,4.808,7.095s3.982,4.146,6.659,4.711a1.055,1.055,0,0,0,.973-.095l2.175-2.212a2.483,2.483,0,0,1,2.633-.381h.038l7.365,4.348a1.773,1.773,0,0,1,.42,2.784Z" transform="translate(0 0)"/></svg>